# xmcd CD database file
#
# Track frame offsets:
#	150
#	21013
#	43296
#	65383
#	86161
#	105239
#	119434
#	139351
#	160646
#	178313
#	201626
#	224526
#	246611
#	263070
#
# Disc length: 3858 seconds
#
# Revision: 20
# Processed by: cddbd v1.5.1PL0 Copyright (c) Steve Scherf et al.
# Submitted via: CDex 1.51
#
DISCID=da0f100e
DTITLE=サザンオールスターズ - バラッド3 〜the album of LOVE〜 DISC.1
DYEAR=2000
DGENRE=JPop
TTITLE0=真夏の果実
TTITLE1=女神達への情歌〜報道されないY型の彼方へ〜
TTITLE2=さよならベイビー
TTITLE3=逢いたくなった時に君はここにいない
TTITLE4=希望の轍
TTITLE5=忘れられた BIG WAVE
TTITLE6=せつない胸に風が吹いてた
TTITLE7=涙のキッス
TTITLE8=OH, GIRL〜悲しい胸のスクリーン〜
TTITLE9=素敵なバーディー〜No No Birdy〜
TTITLE10=冷たい夏
TTITLE11=HAIR
TTITLE12=慕情
TTITLE13=クリスマス・ラブ〜涙のあとには白い雪が降る〜
EXTD=YEAR: 2000
EXTT0=
EXTT1=
EXTT2=
EXTT3=
EXTT4=
EXTT5=
EXTT6=
EXTT7=
EXTT8=
EXTT9=
EXTT10=
EXTT11=
EXTT12=
EXTT13=
PLAYORDER=
